<svg xmlns="http://www.w3.org/2000/svg" version="1.1" xmlns:xlink="http://www.w3.org/1999/xlink" xmlns:svgjs="http://svgjs.dev/svgjs" width="2000" height="358" viewBox="0 0 2000 358"><g transform="matrix(1,0,0,1,-1.2121212121212466,-0.43795125339914875)"><svg viewBox="0 0 396 71" data-background-color="#ececea" preserveAspectRatio="xMidYMid meet" height="358" width="2000" xmlns="http://www.w3.org/2000/svg" xmlns:xlink="http://www.w3.org/1999/xlink"><g id="tight-bounds" transform="matrix(1,0,0,1,0.2400000000000091,0.08685625416575249)"><svg viewBox="0 0 395.52 70.82628749166852" height="70.82628749166852" width="395.52"><g><svg viewBox="0 0 395.52 70.82628749166852" height="70.82628749166852" width="395.52"><g><svg viewBox="0 0 395.52 70.82628749166852" height="70.82628749166852" width="395.52"><g id="textblocktransform"><svg viewBox="0 0 395.52 70.82628749166852" height="70.82628749166852" width="395.52" id="textblock"><g><svg viewBox="0 0 395.52 70.82628749166852" height="70.82628749166852" width="395.52"><g transform="matrix(1,0,0,1,0,0)"><svg width="395.52" viewBox="0.7 -39.6 225.04000000000002 40.300000000000004" height="70.82628749166852" data-palette-color="#009b7d"><path d="M20.4 0.7Q10.95 0.7 5.83-4.1 0.7-8.9 0.7-19.45L0.7-19.45Q0.7-39.6 20.3-39.6L20.3-39.6Q25.05-39.6 29.13-38.45 33.2-37.3 35.2-35.9L35.2-35.9 35.2-23.4 23.2-23.4 23.2-27Q23.2-28.9 22.35-29.8 21.5-30.7 19.8-30.7L19.8-30.7Q18.1-30.7 17.25-29.8 16.4-28.9 16.4-27L16.4-27 16.4-11.9Q16.4-10 17.25-9.1 18.1-8.2 19.8-8.2L19.8-8.2Q21.5-8.2 22.35-9.1 23.2-10 23.2-11.9L23.2-11.9 23.2-15.95 35.2-15.95 35.2-3Q33.15-1.6 29.13-0.45 25.1 0.7 20.4 0.7L20.4 0.7ZM68-8.2L70.2-8.2 70.2 0 54.4 0 54.4-8.2 56.5-8.2 56.5-16.4Q56.5-18.05 55.8-18.82 55.1-19.6 53.7-19.6L53.7-19.6Q50.7-19.6 50.7-16.4L50.7-16.4 50.7-8.2 52.8-8.2 52.8 0 37 0 37-8.2 39.2-8.2 39.2-30.7 37-30.7 37-38.9 50.7-38.9 50.7-23.9Q52.55-26.2 54.7-27.35 56.85-28.5 59.7-28.5L59.7-28.5Q63.85-28.5 65.92-25.9 68-23.3 68-18.75L68-18.75 68-8.2ZM98.75-8.2L100.95-8.2 100.95 0 87.75 0 87.75-3.4Q86.65-1.8 84.67-0.55 82.7 0.7 79.85 0.7L79.85 0.7Q76.1 0.7 73.95-1.3 71.8-3.3 71.8-6.95L71.8-6.95Q71.8-16.4 87.85-16.65L87.85-16.65Q87.7-18.35 86.55-18.98 85.4-19.6 82.65-19.6L82.65-19.6Q80.4-19.6 77.82-19.13 75.25-18.65 73.1-17.85L73.1-17.85 73.1-27.05Q75.75-27.7 78.85-28.1 81.95-28.5 84.9-28.5L84.9-28.5Q92.35-28.5 95.55-25.8 98.75-23.1 98.75-17.45L98.75-17.45 98.75-8.2ZM87.75-11.4L87.75-11.7Q85.5-11.7 84.27-11.1 83.05-10.5 83.05-9.1L83.05-9.1Q83.05-8.25 83.57-7.73 84.1-7.2 85.05-7.2L85.05-7.2Q86.35-7.2 87.05-8.3 87.75-9.4 87.75-11.4L87.75-11.4ZM114.89 0.7Q109.59 0.7 106.92-1.88 104.24-4.45 104.24-10.55L104.24-10.55 104.24-19.6 102.04-19.6 102.04-27.8Q103.94-27.8 104.89-28.78 105.84-29.75 105.84-31.45L105.84-31.45 105.84-33.7 116.44-33.7 116.44-27.8 123.19-27.8 123.19-19.6 116.44-19.6 116.44-11.4Q116.44-9.75 117.17-8.97 117.89-8.2 119.34-8.2L119.34-8.2Q121.24-8.2 123.49-8.65L123.49-8.65 123.49-0.8Q122.09-0.25 119.72 0.23 117.34 0.7 114.89 0.7L114.89 0.7ZM125.19 0L125.19-8.2 127.69-8.2 127.69-30.7 125.19-30.7 125.19-38.9 148.14-38.9Q154.39-38.9 157.89-36.35 161.39-33.8 161.39-29.05L161.39-29.05Q161.39-26.1 159.99-24.08 158.59-22.05 156.72-21.03 154.84-20 153.09-19.65L153.09-19.65 153.09-19.15Q156.64-18.8 159.49-16.9 162.34-15 162.34-10.1L162.34-10.1Q162.34-4.85 158.39-2.43 154.44 0 148.14 0L148.14 0 125.19 0ZM141.69-22.5L144.39-22.5Q145.84-22.5 146.56-23.28 147.29-24.05 147.29-25.7L147.29-25.7 147.29-27.5Q147.29-29.15 146.56-29.93 145.84-30.7 144.39-30.7L144.39-30.7 141.69-30.7 141.69-22.5ZM141.69-8.2L144.74-8.2Q146.19-8.2 146.92-8.97 147.64-9.75 147.64-11.4L147.64-11.4 147.64-13.6Q147.64-15.25 146.92-16.03 146.19-16.8 144.74-16.8L144.74-16.8 141.69-16.8 141.69-8.2ZM178.74 0.7Q171.64 0.7 167.64-3.03 163.64-6.75 163.64-13.9L163.64-13.9Q163.64-21.05 167.64-24.78 171.64-28.5 178.74-28.5L178.74-28.5Q185.94-28.5 189.89-24.73 193.84-20.95 193.84-13.9L193.84-13.9Q193.84-6.75 189.84-3.03 185.84 0.7 178.74 0.7L178.74 0.7ZM178.74-8.2Q180.19-8.2 180.91-8.97 181.64-9.75 181.64-11.4L181.64-11.4 181.64-16.4Q181.64-18.05 180.91-18.82 180.19-19.6 178.74-19.6L178.74-19.6Q177.29-19.6 176.56-18.82 175.84-18.05 175.84-16.4L175.84-16.4 175.84-11.4Q175.84-9.75 176.56-8.97 177.29-8.2 178.74-8.2L178.74-8.2ZM217.69-14.3L224.13-8.2 225.74-8.2 225.74 0 210.13 0 210.13-8.2 211.53-8.2 209.59-11.15 209.09-11.15 207.13-8.2 208.53-8.2 208.53 0 195.13 0 195.13-8.2 197.23-8.2 203.28-13.6 196.94-19.6 195.34-19.6 195.34-27.8 210.94-27.8 210.94-19.6 209.53-19.6 211.48-16.7 211.98-16.7 213.94-19.6 212.53-19.6 212.53-27.8 225.53-27.8 225.53-19.6 223.44-19.6 217.69-14.3Z" opacity="1" transform="matrix(1,0,0,1,0,0)" fill="#009b7d" class="wordmark-text-0" data-fill-palette-color="primary" id="text-0"></path></svg></g></svg></g></svg></g></svg></g></svg></g><defs></defs></svg><rect width="395.52" height="70.82628749166852" fill="none" stroke="none" visibility="hidden"></rect></g></svg></g></svg>